+ filenameToUse=/home/horvathandras/vatic/vatic/public/videouploads/DJI_0011_30m_szarvasragas_homokmegy_20180603_napos_napraforgo_T3.avi
+ filenameNoDot=DJI_0011_30m_szarvasragas_homokmegy_20180603_napos_napraforgo_T3
+ FullUploadPath=/home/horvathandras/vatic/vatic/public/videouploads/DJI_0011_30m_szarvasragas_homokmegy_20180603_napos_napraforgo_T3.avi
+ VideoDataDir=/home/horvathandras/vatic/vatic/videos
+ AvailableObjectTypes='PozitívROI NegatívROI Túrás ~Friss ~1-2Hetes ~Régebbi ~Egyéb1 ~Egyéb2 ~Egyéb3 Rágás ~Friss ~1-2Hetes ~Régebbi ~Egyéb1 ~Egyéb2 ~Egyéb3 Törés ~Friss ~1-2Hetes ~Régebbi ~Egyéb1 ~Egyéb2 ~Egyéb3 Taposás ~Friss ~1-2Hetes ~Régebbi ~Egyéb1 ~Egyéb2 ~Egyéb3 EgészségesNövény Egyéb1 Egyéb2 Egyéb3 Egyéb4 Egyéb5 Bizonytalan Művelőút Gktaposás Vetőhiba Széldöntés Jégkár Belvíz Aszály Erózió EgyszikűGyom KétszikűGyom EgyébNövvédelmiPR'
++ dirname /home/horvathandras/vatic/vatic/vatic_publisher.sh
+ cd /home/horvathandras/vatic/vatic
+ touch /home/horvathandras/vatic/vatic/public/videouploads/DJI_0011_30m_szarvasragas_homokmegy_20180603_napos_napraforgo_T3.avi
+ chmod 744 /home/horvathandras/vatic/vatic/public/videouploads/DJI_0011_30m_szarvasragas_homokmegy_20180603_napos_napraforgo_T3.avi
+ mkdir /home/horvathandras/vatic/vatic/videos/DJI_0011_30m_szarvasragas_homokmegy_20180603_napos_napraforgo_T3
mkdir: cannot create directory '/home/horvathandras/vatic/vatic/videos/DJI_0011_30m_szarvasragas_homokmegy_20180603_napos_napraforgo_T3': File exists
+ turkic extract /home/horvathandras/vatic/vatic/public/videouploads/DJI_0011_30m_szarvasragas_homokmegy_20180603_napos_napraforgo_T3.avi /home/horvathandras/vatic/vatic/videos/DJI_0011_30m_szarvasragas_homokmegy_20180603_napos_napraforgo_T3 --no-resize
ffmpeg version 2.8.14-0ubuntu0.16.04.1 Copyright (c) 2000-2018 the FFmpeg developers
  built with gcc 5.4.0 (Ubuntu 5.4.0-6ubuntu1~16.04.9) 20160609
  configuration: --prefix=/usr --extra-version=0ubuntu0.16.04.1 --build-suffix=-ffmpeg --toolchain=hardened --libdir=/usr/lib/x86_64-linux-gnu --incdir=/usr/include/x86_64-linux-gnu --cc=cc --cxx=g++ --enable-gpl --enable-shared --disable-stripping --disable-decoder=libopenjpeg --disable-decoder=libschroedinger --enable-avresample --enable-avisynth --enable-gnutls --enable-ladspa --enable-libass --enable-libbluray --enable-libbs2b --enable-libcaca --enable-libcdio --enable-libflite --enable-libfontconfig --enable-libfreetype --enable-libfribidi --enable-libgme --enable-libgsm --enable-libmodplug --enable-libmp3lame --enable-libopenjpeg --enable-libopus --enable-libpulse --enable-librtmp --enable-libschroedinger --enable-libshine --enable-libsnappy --enable-libsoxr --enable-libspeex --enable-libssh --enable-libtheora --enable-libtwolame --enable-libvorbis --enable-libvpx --enable-libwavpack --enable-libwebp --enable-libx265 --enable-libxvid --enable-libzvbi --enable-openal --enable-opengl --enable-x11grab --enable-libdc1394 --enable-libiec61883 --enable-libzmq --enable-frei0r --enable-libx264 --enable-libopencv
  libavutil      54. 31.100 / 54. 31.100
  libavcodec     56. 60.100 / 56. 60.100
  libavformat    56. 40.101 / 56. 40.101
  libavdevice    56.  4.100 / 56.  4.100
  libavfilter     5. 40.101 /  5. 40.101
  libavresample   2.  1.  0 /  2.  1.  0
  libswscale      3.  1.101 /  3.  1.101
  libswresample   1.  2.101 /  1.  2.101
  libpostproc    53.  3.100 / 53.  3.100
Input #0, mov,mp4,m4a,3gp,3g2,mj2, from '/home/horvathandras/vatic/vatic/public/videouploads/DJI_0011_30m_szarvasragas_homokmegy_20180603_napos_napraforgo_T3.avi':
  Metadata:
    major_brand     : qt  
    minor_version   : 537986816
    compatible_brands: qt  
    creation_time   : 2018-06-03 07:54:23
    location        : +46.515696+19.137802+30.600
    location-{    : +46.515696+19.137802+30.600
    comment         : DE=None, Mode=P, DSW=0001
  Duration: 00:00:25.64, start: 0.000000, bitrate: 100606 kb/s
    Stream #0:0(eng): Video: h264 (High) (avc1 / 0x31637661), yuv420p(tv, bt709), 4096x2160 [SAR 1:1 DAR 256:135], 100598 kb/s, 50 fps, 50 tbr, 50k tbn, 100 tbc (default)
    Metadata:
      creation_time   : 2018-06-03 07:54:23
      handler_name    : DJI.AVC
      encoder         : AVC encoder
    Stream #0:1(eng): Data: none (priv / 0x76697270), 4 kb/s
    Metadata:
      creation_time   : 2018-06-03 07:54:23
      handler_name    : DJI.Meta
Please use -b:a or -b:v, -b is ambiguous
[swscaler @ 0x1509420] deprecated pixel format used, make sure you did set range correctly
Output #0, image2, to '/tmp/pyvision-ffmpeg-542059100/%d.jpg':
  Metadata:
    major_brand     : qt  
    minor_version   : 537986816
    compatible_brands: qt  
    comment         : DE=None, Mode=P, DSW=0001
    location        : +46.515696+19.137802+30.600
    location-{    : +46.515696+19.137802+30.600
    encoder         : Lavf56.40.101
    Stream #0:0(eng): Video: mjpeg, yuvj420p(pc), 4096x2160 [SAR 1:1 DAR 256:135], q=2-31, 10000 kb/s, 50 fps, 50 tbn, 50 tbc (default)
    Metadata:
      creation_time   : 2018-06-03 07:54:23
      handler_name    : DJI.AVC
      encoder         : Lavc56.60.100 mjpeg
Stream mapping:
  Stream #0:0 -> #0:0 (h264 (native) -> mjpeg (native))
Press [q] to stop, [?] for help
frame=    1 fps=0.9 q=19.6 size=N/A time=00:00:00.02 bitrate=N/A    frame=    4 fps=2.3 q=24.8 size=N/A time=00:00:00.08 bitrate=N/A    frame=    7 fps=3.0 q=24.8 size=N/A time=00:00:00.14 bitrate=N/A    frame=   10 fps=3.5 q=24.8 size=N/A time=00:00:00.20 bitrate=N/A    frame=   13 fps=3.8 q=24.8 size=N/A time=00:00:00.26 bitrate=N/A    frame=   16 fps=4.0 q=24.8 size=N/A time=00:00:00.32 bitrate=N/A    frame=   19 fps=4.2 q=24.8 size=N/A time=00:00:00.38 bitrate=N/A    frame=   23 fps=4.4 q=24.8 size=N/A time=00:00:00.46 bitrate=N/A    frame=   27 fps=4.6 q=24.8 size=N/A time=00:00:00.54 bitrate=N/A    frame=   30 fps=4.7 q=24.8 size=N/A time=00:00:00.60 bitrate=N/A    frame=   33 fps=4.7 q=24.8 size=N/A time=00:00:00.66 bitrate=N/A    frame=   36 fps=4.8 q=24.8 size=N/A time=00:00:00.72 bitrate=N/A    frame=   39 fps=4.8 q=24.8 size=N/A time=00:00:00.78 bitrate=N/A    frame=   42 fps=4.8 q=24.8 size=N/A time=00:00:00.84 bitrate=N/A    frame=   45 fps=4.8 q=24.8 size=N/A time=00:00:00.90 bitrate=N/A    frame=   48 fps=4.9 q=24.8 size=N/A time=00:00:00.96 bitrate=N/A    frame=   51 fps=4.9 q=24.8 size=N/A time=00:00:01.02 bitrate=N/A    frame=   54 fps=4.9 q=24.8 size=N/A time=00:00:01.08 bitrate=N/A    frame=   58 fps=5.0 q=24.8 size=N/A time=00:00:01.16 bitrate=N/A    frame=   62 fps=5.1 q=24.8 size=N/A time=00:00:01.24 bitrate=N/A    frame=   66 fps=5.2 q=24.8 size=N/A time=00:00:01.32 bitrate=N/A    frame=   69 fps=5.2 q=24.8 size=N/A time=00:00:01.38 bitrate=N/A    frame=   72 fps=5.2 q=24.8 size=N/A time=00:00:01.44 bitrate=N/A    frame=   76 fps=5.3 q=24.8 size=N/A time=00:00:01.52 bitrate=N/A    frame=   79 fps=5.3 q=24.8 size=N/A time=00:00:01.58 bitrate=N/A    frame=   82 fps=5.3 q=24.8 size=N/A time=00:00:01.64 bitrate=N/A    frame=   85 fps=5.3 q=24.8 size=N/A time=00:00:01.70 bitrate=N/A    frame=   89 fps=5.3 q=24.8 size=N/A time=00:00:01.78 bitrate=N/A    frame=   92 fps=5.4 q=24.8 size=N/A time=00:00:01.84 bitrate=N/A    frame=   95 fps=5.4 q=24.8 size=N/A time=00:00:01.90 bitrate=N/A    frame=   98 fps=5.4 q=24.8 size=N/A time=00:00:01.96 bitrate=N/A    frame=  101 fps=5.4 q=24.8 size=N/A time=00:00:02.02 bitrate=N/A    frame=  105 fps=5.4 q=24.8 size=N/A time=00:00:02.10 bitrate=N/A    frame=  109 fps=5.4 q=24.8 size=N/A time=00:00:02.18 bitrate=N/A    frame=  112 fps=5.5 q=24.8 size=N/A time=00:00:02.24 bitrate=N/A    frame=  116 fps=5.5 q=24.8 size=N/A time=00:00:02.32 bitrate=N/A    frame=  118 fps=5.4 q=24.8 size=N/A time=00:00:02.36 bitrate=N/A    frame=  121 fps=5.4 q=24.8 size=N/A time=00:00:02.42 bitrate=N/A    frame=  125 fps=5.4 q=24.8 size=N/A time=00:00:02.50 bitrate=N/A    frame=  128 fps=5.4 q=24.8 size=N/A time=00:00:02.56 bitrate=N/A    frame=  131 fps=5.4 q=24.8 size=N/A time=00:00:02.62 bitrate=N/A    frame=  134 fps=5.4 q=24.8 size=N/A time=00:00:02.68 bitrate=N/A    frame=  138 fps=5.4 q=24.8 size=N/A time=00:00:02.76 bitrate=N/A    frame=  141 fps=5.4 q=24.8 size=N/A time=00:00:02.82 bitrate=N/A    frame=  145 fps=5.5 q=24.8 size=N/A time=00:00:02.90 bitrate=N/A    frame=  148 fps=5.5 q=24.8 size=N/A time=00:00:02.96 bitrate=N/A    frame=  151 fps=5.5 q=24.8 size=N/A time=00:00:03.02 bitrate=N/A    frame=  154 fps=5.5 q=24.8 size=N/A time=00:00:03.08 bitrate=N/A    frame=  157 fps=5.5 q=24.8 size=N/A time=00:00:03.14 bitrate=N/A    frame=  161 fps=5.5 q=24.8 size=N/A time=00:00:03.22 bitrate=N/A    frame=  165 fps=5.5 q=24.8 size=N/A time=00:00:03.30 bitrate=N/A    frame=  169 fps=5.5 q=24.8 size=N/A time=00:00:03.38 bitrate=N/A    frame=  172 fps=5.5 q=24.8 size=N/A time=00:00:03.44 bitrate=N/A    frame=  176 fps=5.6 q=24.8 size=N/A time=00:00:03.52 bitrate=N/A    frame=  178 fps=5.5 q=24.8 size=N/A time=00:00:03.56 bitrate=N/A    frame=  182 fps=5.5 q=24.8 size=N/A time=00:00:03.64 bitrate=N/A    frame=  186 fps=5.6 q=24.8 size=N/A time=00:00:03.72 bitrate=N/A    frame=  189 fps=5.6 q=24.8 size=N/A time=00:00:03.78 bitrate=N/A    frame=  192 fps=5.6 q=24.8 size=N/A time=00:00:03.84 bitrate=N/A    frame=  196 fps=5.6 q=24.8 size=N/A time=00:00:03.92 bitrate=N/A    frame=  199 fps=5.6 q=24.8 size=N/A time=00:00:03.98 bitrate=N/A    frame=  203 fps=5.6 q=24.8 size=N/A time=00:00:04.06 bitrate=N/A    frame=  206 fps=5.6 q=24.8 size=N/A time=00:00:04.12 bitrate=N/A    frame=  209 fps=5.6 q=24.8 size=N/A time=00:00:04.18 bitrate=N/A    frame=  213 fps=5.6 q=24.8 size=N/A time=00:00:04.26 bitrate=N/A    frame=  217 fps=5.6 q=24.8 size=N/A time=00:00:04.34 bitrate=N/A    frame=  221 fps=5.6 q=24.8 size=N/A time=00:00:04.42 bitrate=N/A    frame=  224 fps=5.6 q=24.8 size=N/A time=00:00:04.48 bitrate=N/A    frame=  228 fps=5.6 q=24.8 size=N/A time=00:00:04.56 bitrate=N/A    frame=  231 fps=5.6 q=24.8 size=N/A time=00:00:04.62 bitrate=N/A    frame=  235 fps=5.6 q=24.8 size=N/A time=00:00:04.70 bitrate=N/A    frame=  239 fps=5.6 q=24.8 size=N/A time=00:00:04.78 bitrate=N/A    frame=  242 fps=5.6 q=24.8 size=N/A time=00:00:04.84 bitrate=N/A    frame=  245 fps=5.6 q=24.8 size=N/A time=00:00:04.90 bitrate=N/A    frame=  249 fps=5.6 q=24.8 size=N/A time=00:00:04.98 bitrate=N/A    frame=  253 fps=5.6 q=24.8 size=N/A time=00:00:05.06 bitrate=N/A    frame=  257 fps=5.6 q=24.8 size=N/A time=00:00:05.14 bitrate=N/A    frame=  260 fps=5.6 q=24.8 size=N/A time=00:00:05.20 bitrate=N/A    frame=  264 fps=5.6 q=24.8 size=N/A time=00:00:05.28 bitrate=N/A    frame=  268 fps=5.6 q=24.8 size=N/A time=00:00:05.36 bitrate=N/A    frame=  271 fps=5.6 q=24.8 size=N/A time=00:00:05.42 bitrate=N/A    frame=  274 fps=5.6 q=24.8 size=N/A time=00:00:05.48 bitrate=N/A    frame=  278 fps=5.6 q=24.8 size=N/A time=00:00:05.56 bitrate=N/A    frame=  282 fps=5.7 q=24.8 size=N/A time=00:00:05.64 bitrate=N/A    frame=  286 fps=5.7 q=24.8 size=N/A time=00:00:05.72 bitrate=N/A    frame=  290 fps=5.7 q=24.8 size=N/A time=00:00:05.80 bitrate=N/A    frame=  293 fps=5.7 q=24.8 size=N/A time=00:00:05.86 bitrate=N/A    frame=  297 fps=5.7 q=24.8 size=N/A time=00:00:05.94 bitrate=N/A    frame=  300 fps=5.7 q=24.8 size=N/A time=00:00:06.00 bitrate=N/A    frame=  303 fps=5.7 q=24.8 size=N/A time=00:00:06.06 bitrate=N/A    frame=  306 fps=5.7 q=24.8 size=N/A time=00:00:06.12 bitrate=N/A    frame=  310 fps=5.7 q=24.8 size=N/A time=00:00:06.20 bitrate=N/A    frame=  314 fps=5.7 q=24.8 size=N/A time=00:00:06.28 bitrate=N/A    frame=  318 fps=5.7 q=24.8 size=N/A time=00:00:06.36 bitrate=N/A    frame=  321 fps=5.7 q=24.8 size=N/A time=00:00:06.42 bitrate=N/A    frame=  324 fps=5.7 q=24.8 size=N/A time=00:00:06.48 bitrate=N/A    frame=  328 fps=5.7 q=24.8 size=N/A time=00:00:06.56 bitrate=N/A    frame=  331 fps=5.7 q=24.8 size=N/A time=00:00:06.62 bitrate=N/A    frame=  335 fps=5.7 q=24.8 size=N/A time=00:00:06.70 bitrate=N/A    frame=  339 fps=5.7 q=24.8 size=N/A time=00:00:06.78 bitrate=N/A    frame=  342 fps=5.7 q=24.8 size=N/A time=00:00:06.84 bitrate=N/A    frame=  345 fps=5.7 q=24.8 size=N/A time=00:00:06.90 bitrate=N/A    frame=  348 fps=5.7 q=24.8 size=N/A time=00:00:06.96 bitrate=N/A    frame=  352 fps=5.7 q=24.8 size=N/A time=00:00:07.04 bitrate=N/A    frame=  356 fps=5.7 q=24.8 size=N/A time=00:00:07.12 bitrate=N/A    frame=  359 fps=5.7 q=24.8 size=N/A time=00:00:07.18 bitrate=N/A    frame=  363 fps=5.7 q=24.8 size=N/A time=00:00:07.26 bitrate=N/A    frame=  366 fps=5.7 q=24.8 size=N/A time=00:00:07.32 bitrate=N/A    frame=  370 fps=5.7 q=24.8 size=N/A time=00:00:07.40 bitrate=N/A    frame=  374 fps=5.7 q=24.8 size=N/A time=00:00:07.48 bitrate=N/A    frame=  377 fps=5.7 q=24.8 size=N/A time=00:00:07.54 bitrate=N/A    frame=  380 fps=5.7 q=24.8 size=N/A time=00:00:07.60 bitrate=N/A    frame=  384 fps=5.7 q=24.8 size=N/A time=00:00:07.68 bitrate=N/A    frame=  388 fps=5.7 q=24.8 size=N/A time=00:00:07.76 bitrate=N/A    frame=  391 fps=5.7 q=24.8 size=N/A time=00:00:07.82 bitrate=N/A    frame=  395 fps=5.7 q=24.8 size=N/A time=00:00:07.90 bitrate=N/A    frame=  399 fps=5.7 q=24.8 size=N/A time=00:00:07.98 bitrate=N/A    frame=  403 fps=5.7 q=24.8 size=N/A time=00:00:08.06 bitrate=N/A    frame=  406 fps=5.7 q=24.8 size=N/A time=00:00:08.12 bitrate=N/A    frame=  409 fps=5.7 q=24.8 size=N/A time=00:00:08.18 bitrate=N/A    frame=  412 fps=5.7 q=24.8 size=N/A time=00:00:08.24 bitrate=N/A    frame=  415 fps=5.7 q=24.8 size=N/A time=00:00:08.30 bitrate=N/A    frame=  418 fps=5.7 q=24.8 size=N/A time=00:00:08.36 bitrate=N/A    frame=  422 fps=5.7 q=24.8 size=N/A time=00:00:08.44 bitrate=N/A    frame=  426 fps=5.7 q=24.8 size=N/A time=00:00:08.52 bitrate=N/A    frame=  429 fps=5.7 q=24.8 size=N/A time=00:00:08.58 bitrate=N/A    frame=  433 fps=5.7 q=24.8 size=N/A time=00:00:08.66 bitrate=N/A    frame=  437 fps=5.7 q=24.8 size=N/A time=00:00:08.74 bitrate=N/A    frame=  440 fps=5.7 q=24.8 size=N/A time=00:00:08.80 bitrate=N/A    frame=  444 fps=5.7 q=24.8 size=N/A time=00:00:08.88 bitrate=N/A    frame=  447 fps=5.7 q=24.8 size=N/A time=00:00:08.94 bitrate=N/A    frame=  451 fps=5.7 q=24.8 size=N/A time=00:00:09.02 bitrate=N/A    frame=  455 fps=5.7 q=24.8 size=N/A time=00:00:09.10 bitrate=N/A    frame=  458 fps=5.7 q=24.8 size=N/A time=00:00:09.16 bitrate=N/A    frame=  462 fps=5.7 q=24.8 size=N/A time=00:00:09.24 bitrate=N/A    frame=  466 fps=5.7 q=24.8 size=N/A time=00:00:09.32 bitrate=N/A    frame=  469 fps=5.7 q=24.8 size=N/A time=00:00:09.38 bitrate=N/A    frame=  473 fps=5.7 q=24.8 size=N/A time=00:00:09.46 bitrate=N/A    frame=  477 fps=5.7 q=24.8 size=N/A time=00:00:09.54 bitrate=N/A    frame=  480 fps=5.7 q=24.8 size=N/A time=00:00:09.60 bitrate=N/A    frame=  483 fps=5.7 q=24.8 size=N/A time=00:00:09.66 bitrate=N/A    frame=  487 fps=5.7 q=24.8 size=N/A time=00:00:09.74 bitrate=N/A    frame=  491 fps=5.7 q=24.8 size=N/A time=00:00:09.82 bitrate=N/A    frame=  495 fps=5.7 q=24.8 size=N/A time=00:00:09.90 bitrate=N/A    frame=  499 fps=5.7 q=24.8 size=N/A time=00:00:09.98 bitrate=N/A    frame=  503 fps=5.7 q=24.8 size=N/A time=00:00:10.06 bitrate=N/A    frame=  506 fps=5.7 q=24.8 size=N/A time=00:00:10.12 bitrate=N/A    frame=  509 fps=5.7 q=24.8 size=N/A time=00:00:10.18 bitrate=N/A    frame=  512 fps=5.7 q=24.8 size=N/A time=00:00:10.24 bitrate=N/A    frame=  515 fps=5.7 q=24.8 size=N/A time=00:00:10.30 bitrate=N/A    frame=  518 fps=5.7 q=24.8 size=N/A time=00:00:10.36 bitrate=N/A    frame=  522 fps=5.7 q=24.8 size=N/A time=00:00:10.44 bitrate=N/A    frame=  524 fps=5.7 q=24.8 size=N/A time=00:00:10.48 bitrate=N/A    frame=  527 fps=5.7 q=24.8 size=N/A time=00:00:10.54 bitrate=N/A    frame=  531 fps=5.7 q=24.8 size=N/A time=00:00:10.62 bitrate=N/A    frame=  534 fps=5.7 q=24.8 size=N/A time=00:00:10.68 bitrate=N/A    frame=  537 fps=5.7 q=24.8 size=N/A time=00:00:10.74 bitrate=N/A    frame=  540 fps=5.7 q=24.8 size=N/A time=00:00:10.80 bitrate=N/A    frame=  544 fps=5.7 q=24.8 size=N/A time=00:00:10.88 bitrate=N/A    frame=  548 fps=5.7 q=24.8 size=N/A time=00:00:10.96 bitrate=N/A    frame=  552 fps=5.7 q=24.8 size=N/A time=00:00:11.04 bitrate=N/A    frame=  555 fps=5.7 q=24.8 size=N/A time=00:00:11.10 bitrate=N/A    frame=  558 fps=5.7 q=24.8 size=N/A time=00:00:11.16 bitrate=N/A    frame=  562 fps=5.7 q=24.8 size=N/A time=00:00:11.24 bitrate=N/A    frame=  566 fps=5.7 q=24.8 size=N/A time=00:00:11.32 bitrate=N/A    frame=  570 fps=5.7 q=24.8 size=N/A time=00:00:11.40 bitrate=N/A    frame=  573 fps=5.7 q=24.8 size=N/A time=00:00:11.46 bitrate=N/A    frame=  576 fps=5.7 q=24.8 size=N/A time=00:00:11.52 bitrate=N/A    frame=  580 fps=5.7 q=24.8 size=N/A time=00:00:11.60 bitrate=N/A    frame=  584 fps=5.7 q=24.8 size=N/A time=00:00:11.68 bitrate=N/A    frame=  587 fps=5.7 q=24.8 size=N/A time=00:00:11.74 bitrate=N/A    frame=  590 fps=5.7 q=24.8 size=N/A time=00:00:11.80 bitrate=N/A    frame=  593 fps=5.7 q=24.8 size=N/A time=00:00:11.86 bitrate=N/A    frame=  596 fps=5.7 q=24.8 size=N/A time=00:00:11.92 bitrate=N/A    frame=  600 fps=5.7 q=24.8 size=N/A time=00:00:12.00 bitrate=N/A    frame=  603 fps=5.7 q=24.8 size=N/A time=00:00:12.06 bitrate=N/A    frame=  607 fps=5.7 q=24.8 size=N/A time=00:00:12.14 bitrate=N/A    frame=  611 fps=5.7 q=24.8 size=N/A time=00:00:12.22 bitrate=N/A    frame=  615 fps=5.7 q=24.8 size=N/A time=00:00:12.30 bitrate=N/A    frame=  618 fps=5.7 q=24.8 size=N/A time=00:00:12.36 bitrate=N/A    frame=  622 fps=5.7 q=24.8 size=N/A time=00:00:12.44 bitrate=N/A    frame=  626 fps=5.7 q=24.8 size=N/A time=00:00:12.52 bitrate=N/A    frame=  630 fps=5.7 q=24.8 size=N/A time=00:00:12.60 bitrate=N/A    frame=  633 fps=5.7 q=24.8 size=N/A time=00:00:12.66 bitrate=N/A    frame=  636 fps=5.7 q=24.8 size=N/A time=00:00:12.72 bitrate=N/A    frame=  640 fps=5.7 q=24.8 size=N/A time=00:00:12.80 bitrate=N/A    frame=  644 fps=5.7 q=24.8 size=N/A time=00:00:12.88 bitrate=N/A    frame=  647 fps=5.7 q=24.8 size=N/A time=00:00:12.94 bitrate=N/A    frame=  651 fps=5.8 q=24.8 size=N/A time=00:00:13.02 bitrate=N/A    frame=  654 fps=5.8 q=24.8 size=N/A time=00:00:13.08 bitrate=N/A    frame=  657 fps=5.7 q=24.8 size=N/A time=00:00:13.14 bitrate=N/A    frame=  660 fps=5.7 q=24.8 size=N/A time=00:00:13.20 bitrate=N/A    frame=  663 fps=5.7 q=24.8 size=N/A time=00:00:13.26 bitrate=N/A    frame=  666 fps=5.7 q=24.8 size=N/A time=00:00:13.32 bitrate=N/A    frame=  669 fps=5.7 q=24.8 size=N/A time=00:00:13.38 bitrate=N/A    frame=  672 fps=5.7 q=24.8 size=N/A time=00:00:13.44 bitrate=N/A    frame=  676 fps=5.7 q=24.8 size=N/A time=00:00:13.52 bitrate=N/A    frame=  679 fps=5.7 q=24.8 size=N/A time=00:00:13.58 bitrate=N/A    frame=  683 fps=5.7 q=24.8 size=N/A time=00:00:13.66 bitrate=N/A    frame=  686 fps=5.7 q=24.8 size=N/A time=00:00:13.72 bitrate=N/A    frame=  689 fps=5.7 q=24.8 size=N/A time=00:00:13.78 bitrate=N/A    frame=  693 fps=5.7 q=24.8 size=N/A time=00:00:13.86 bitrate=N/A    frame=  697 fps=5.7 q=24.8 size=N/A time=00:00:13.94 bitrate=N/A    frame=  700 fps=5.7 q=24.8 size=N/A time=00:00:14.00 bitrate=N/A    frame=  703 fps=5.7 q=24.8 size=N/A time=00:00:14.06 bitrate=N/A    frame=  706 fps=5.7 q=24.8 size=N/A time=00:00:14.12 bitrate=N/A    frame=  709 fps=5.7 q=24.8 size=N/A time=00:00:14.18 bitrate=N/A    frame=  713 fps=5.7 q=24.8 size=N/A time=00:00:14.26 bitrate=N/A    frame=  717 fps=5.7 q=24.8 size=N/A time=00:00:14.34 bitrate=N/A    frame=  720 fps=5.7 q=24.8 size=N/A time=00:00:14.40 bitrate=N/A    frame=  723 fps=5.7 q=24.8 size=N/A time=00:00:14.46 bitrate=N/A    frame=  726 fps=5.7 q=24.8 size=N/A time=00:00:14.52 bitrate=N/A    frame=  729 fps=5.7 q=24.8 size=N/A time=00:00:14.58 bitrate=N/A    frame=  732 fps=5.7 q=24.8 size=N/A time=00:00:14.64 bitrate=N/A    frame=  735 fps=5.7 q=24.8 size=N/A time=00:00:14.70 bitrate=N/A    frame=  739 fps=5.7 q=24.8 size=N/A time=00:00:14.78 bitrate=N/A    frame=  742 fps=5.7 q=24.8 size=N/A time=00:00:14.84 bitrate=N/A    frame=  745 fps=5.7 q=24.8 size=N/A time=00:00:14.90 bitrate=N/A    frame=  748 fps=5.7 q=24.8 size=N/A time=00:00:14.96 bitrate=N/A    frame=  751 fps=5.7 q=24.8 size=N/A time=00:00:15.02 bitrate=N/A    frame=  754 fps=5.7 q=24.8 size=N/A time=00:00:15.08 bitrate=N/A    frame=  757 fps=5.7 q=24.8 size=N/A time=00:00:15.14 bitrate=N/A    frame=  761 fps=5.7 q=24.8 size=N/A time=00:00:15.22 bitrate=N/A    frame=  765 fps=5.7 q=24.8 size=N/A time=00:00:15.30 bitrate=N/A    frame=  768 fps=5.7 q=24.8 size=N/A time=00:00:15.36 bitrate=N/A    frame=  771 fps=5.7 q=24.8 size=N/A time=00:00:15.42 bitrate=N/A    frame=  774 fps=5.7 q=24.8 size=N/A time=00:00:15.48 bitrate=N/A    frame=  778 fps=5.7 q=24.8 size=N/A time=00:00:15.56 bitrate=N/A    frame=  781 fps=5.7 q=24.8 size=N/A time=00:00:15.62 bitrate=N/A    frame=  785 fps=5.7 q=24.8 size=N/A time=00:00:15.70 bitrate=N/A    frame=  788 fps=5.7 q=24.8 size=N/A time=00:00:15.76 bitrate=N/A    frame=  791 fps=5.7 q=24.8 size=N/A time=00:00:15.82 bitrate=N/A    frame=  795 fps=5.7 q=24.8 size=N/A time=00:00:15.90 bitrate=N/A    frame=  799 fps=5.7 q=24.8 size=N/A time=00:00:15.98 bitrate=N/A    frame=  803 fps=5.7 q=24.8 size=N/A time=00:00:16.06 bitrate=N/A    frame=  806 fps=5.7 q=24.8 size=N/A time=00:00:16.12 bitrate=N/A    frame=  809 fps=5.7 q=24.8 size=N/A time=00:00:16.18 bitrate=N/A    frame=  812 fps=5.7 q=24.8 size=N/A time=00:00:16.24 bitrate=N/A    frame=  816 fps=5.7 q=24.8 size=N/A time=00:00:16.32 bitrate=N/A    frame=  820 fps=5.7 q=24.8 size=N/A time=00:00:16.40 bitrate=N/A    frame=  823 fps=5.7 q=24.8 size=N/A time=00:00:16.46 bitrate=N/A    frame=  826 fps=5.7 q=24.8 size=N/A time=00:00:16.52 bitrate=N/A    frame=  829 fps=5.7 q=24.8 size=N/A time=00:00:16.58 bitrate=N/A    frame=  832 fps=5.7 q=24.8 size=N/A time=00:00:16.64 bitrate=N/A    frame=  836 fps=5.7 q=24.8 size=N/A time=00:00:16.72 bitrate=N/A    frame=  840 fps=5.7 q=24.8 size=N/A time=00:00:16.80 bitrate=N/A    frame=  843 fps=5.7 q=24.8 size=N/A time=00:00:16.86 bitrate=N/A    frame=  847 fps=5.7 q=24.8 size=N/A time=00:00:16.94 bitrate=N/A    frame=  851 fps=5.7 q=24.8 size=N/A time=00:00:17.02 bitrate=N/A    frame=  854 fps=5.7 q=24.8 size=N/A time=00:00:17.08 bitrate=N/A    frame=  857 fps=5.7 q=24.8 size=N/A time=00:00:17.14 bitrate=N/A    frame=  861 fps=5.7 q=24.8 size=N/A time=00:00:17.22 bitrate=N/A    frame=  865 fps=5.7 q=24.8 size=N/A time=00:00:17.30 bitrate=N/A    frame=  868 fps=5.7 q=24.8 size=N/A time=00:00:17.36 bitrate=N/A    frame=  871 fps=5.7 q=24.8 size=N/A time=00:00:17.42 bitrate=N/A    frame=  875 fps=5.7 q=24.8 size=N/A time=00:00:17.50 bitrate=N/A    frame=  878 fps=5.7 q=24.8 size=N/A time=00:00:17.56 bitrate=N/A    frame=  881 fps=5.7 q=24.8 size=N/A time=00:00:17.62 bitrate=N/A    frame=  884 fps=5.7 q=24.8 size=N/A time=00:00:17.68 bitrate=N/A    frame=  887 fps=5.7 q=24.8 size=N/A time=00:00:17.74 bitrate=N/A    frame=  891 fps=5.7 q=24.8 size=N/A time=00:00:17.82 bitrate=N/A    frame=  895 fps=5.7 q=24.8 size=N/A time=00:00:17.90 bitrate=N/A    frame=  899 fps=5.7 q=24.8 size=N/A time=00:00:17.98 bitrate=N/A    frame=  902 fps=5.7 q=24.8 size=N/A time=00:00:18.04 bitrate=N/A    frame=  906 fps=5.7 q=24.8 size=N/A time=00:00:18.12 bitrate=N/A    frame=  910 fps=5.7 q=24.8 size=N/A time=00:00:18.20 bitrate=N/A    frame=  913 fps=5.7 q=24.8 size=N/A time=00:00:18.26 bitrate=N/A    frame=  916 fps=5.7 q=24.8 size=N/A time=00:00:18.32 bitrate=N/A    frame=  919 fps=5.7 q=24.8 size=N/A time=00:00:18.38 bitrate=N/A    frame=  922 fps=5.7 q=24.8 size=N/A time=00:00:18.44 bitrate=N/A    frame=  925 fps=5.7 q=24.8 size=N/A time=00:00:18.50 bitrate=N/A    frame=  928 fps=5.7 q=24.8 size=N/A time=00:00:18.56 bitrate=N/A    frame=  932 fps=5.7 q=24.8 size=N/A time=00:00:18.64 bitrate=N/A    frame=  936 fps=5.7 q=24.8 size=N/A time=00:00:18.72 bitrate=N/A    frame=  940 fps=5.7 q=24.8 size=N/A time=00:00:18.80 bitrate=N/A    frame=  943 fps=5.7 q=24.8 size=N/A time=00:00:18.86 bitrate=N/A    frame=  947 fps=5.7 q=24.8 size=N/A time=00:00:18.94 bitrate=N/A    frame=  951 fps=5.7 q=24.8 size=N/A time=00:00:19.02 bitrate=N/A    frame=  954 fps=5.7 q=24.8 size=N/A time=00:00:19.08 bitrate=N/A    frame=  958 fps=5.7 q=24.8 size=N/A time=00:00:19.16 bitrate=N/A    frame=  961 fps=5.7 q=24.8 size=N/A time=00:00:19.22 bitrate=N/A    frame=  965 fps=5.7 q=24.8 size=N/A time=00:00:19.30 bitrate=N/A    frame=  968 fps=5.7 q=24.8 size=N/A time=00:00:19.36 bitrate=N/A    frame=  972 fps=5.7 q=24.8 size=N/A time=00:00:19.44 bitrate=N/A    frame=  975 fps=5.7 q=24.8 size=N/A time=00:00:19.50 bitrate=N/A    frame=  978 fps=5.7 q=24.8 size=N/A time=00:00:19.56 bitrate=N/A    frame=  981 fps=5.7 q=24.8 size=N/A time=00:00:19.62 bitrate=N/A    frame=  985 fps=5.7 q=24.8 size=N/A time=00:00:19.70 bitrate=N/A    frame=  988 fps=5.7 q=24.8 size=N/A time=00:00:19.76 bitrate=N/A    frame=  991 fps=5.7 q=24.8 size=N/A time=00:00:19.82 bitrate=N/A    frame=  995 fps=5.7 q=24.8 size=N/A time=00:00:19.90 bitrate=N/A    frame=  999 fps=5.7 q=24.8 size=N/A time=00:00:19.98 bitrate=N/A    frame= 1003 fps=5.7 q=24.8 size=N/A time=00:00:20.06 bitrate=N/A    frame= 1005 fps=5.7 q=24.8 size=N/A time=00:00:20.10 bitrate=N/A    frame= 1009 fps=5.7 q=24.8 size=N/A time=00:00:20.18 bitrate=N/A    frame= 1013 fps=5.7 q=24.8 size=N/A time=00:00:20.26 bitrate=N/A    frame= 1017 fps=5.7 q=24.8 size=N/A time=00:00:20.34 bitrate=N/A    frame= 1020 fps=5.7 q=24.8 size=N/A time=00:00:20.40 bitrate=N/A    frame= 1024 fps=5.7 q=24.8 size=N/A time=00:00:20.48 bitrate=N/A    frame= 1028 fps=5.8 q=24.8 size=N/A time=00:00:20.56 bitrate=N/A    frame= 1033 fps=5.8 q=24.8 size=N/A time=00:00:20.66 bitrate=N/A    frame= 1036 fps=5.8 q=24.8 size=N/A time=00:00:20.72 bitrate=N/A    frame= 1040 fps=5.8 q=24.8 size=N/A time=00:00:20.80 bitrate=N/A    frame= 1044 fps=5.8 q=24.8 size=N/A time=00:00:20.88 bitrate=N/A    frame= 1048 fps=5.8 q=24.8 size=N/A time=00:00:20.96 bitrate=N/A    frame= 1052 fps=5.8 q=24.8 size=N/A time=00:00:21.04 bitrate=N/A    frame= 1056 fps=5.8 q=24.8 size=N/A time=00:00:21.12 bitrate=N/A    frame= 1060 fps=5.8 q=24.8 size=N/A time=00:00:21.20 bitrate=N/A    frame= 1065 fps=5.8 q=24.8 size=N/A time=00:00:21.30 bitrate=N/A    frame= 1070 fps=5.8 q=24.8 size=N/A time=00:00:21.40 bitrate=N/A    frame= 1075 fps=5.8 q=24.8 size=N/A time=00:00:21.50 bitrate=N/A    frame= 1079 fps=5.8 q=24.8 size=N/A time=00:00:21.58 bitrate=N/A    frame= 1083 fps=5.8 q=24.8 size=N/A time=00:00:21.66 bitrate=N/A    frame= 1088 fps=5.8 q=24.8 size=N/A time=00:00:21.76 bitrate=N/A    frame= 1093 fps=5.8 q=24.8 size=N/A time=00:00:21.86 bitrate=N/A    frame= 1098 fps=5.8 q=24.8 size=N/A time=00:00:21.96 bitrate=N/A    frame= 1103 fps=5.9 q=24.8 size=N/A time=00:00:22.06 bitrate=N/A    frame= 1108 fps=5.9 q=24.8 size=N/A time=00:00:22.16 bitrate=N/A    frame= 1112 fps=5.9 q=24.8 size=N/A time=00:00:22.24 bitrate=N/A    frame= 1117 fps=5.9 q=24.8 size=N/A time=00:00:22.34 bitrate=N/A    frame= 1122 fps=5.9 q=24.8 size=N/A time=00:00:22.44 bitrate=N/A    frame= 1127 fps=5.9 q=24.8 size=N/A time=00:00:22.54 bitrate=N/A    frame= 1132 fps=5.9 q=24.8 size=N/A time=00:00:22.64 bitrate=N/A    frame= 1137 fps=5.9 q=24.8 size=N/A time=00:00:22.74 bitrate=N/A    frame= 1142 fps=5.9 q=24.8 size=N/A time=00:00:22.84 bitrate=N/A    frame= 1147 fps=5.9 q=24.8 size=N/A time=00:00:22.94 bitrate=N/A    frame= 1152 fps=5.9 q=24.8 size=N/A time=00:00:23.04 bitrate=N/A    frame= 1157 fps=5.9 q=24.8 size=N/A time=00:00:23.14 bitrate=N/A    frame= 1162 fps=5.9 q=24.8 size=N/A time=00:00:23.24 bitrate=N/A    frame= 1167 fps=5.9 q=24.8 size=N/A time=00:00:23.34 bitrate=N/A    frame= 1171 fps=6.0 q=24.8 size=N/A time=00:00:23.42 bitrate=N/A    frame= 1176 fps=6.0 q=24.8 size=N/A time=00:00:23.52 bitrate=N/A    frame= 1181 fps=6.0 q=24.8 size=N/A time=00:00:23.62 bitrate=N/A    frame= 1186 fps=6.0 q=24.8 size=N/A time=00:00:23.72 bitrate=N/A    frame= 1191 fps=6.0 q=24.8 size=N/A time=00:00:23.82 bitrate=N/A    frame= 1196 fps=6.0 q=24.8 size=N/A time=00:00:23.92 bitrate=N/A    frame= 1200 fps=6.0 q=24.8 size=N/A time=00:00:24.00 bitrate=N/A    frame= 1205 fps=6.0 q=24.8 size=N/A time=00:00:24.10 bitrate=N/A    frame= 1209 fps=6.0 q=24.8 size=N/A time=00:00:24.18 bitrate=N/A    frame= 1213 fps=6.0 q=24.8 size=N/A time=00:00:24.26 bitrate=N/A    frame= 1217 fps=6.0 q=24.8 size=N/A time=00:00:24.34 bitrate=N/A    frame= 1221 fps=6.0 q=24.8 size=N/A time=00:00:24.42 bitrate=N/A    frame= 1225 fps=6.0 q=24.8 size=N/A time=00:00:24.50 bitrate=N/A    frame= 1229 fps=6.0 q=24.8 size=N/A time=00:00:24.58 bitrate=N/A    frame= 1233 fps=6.0 q=24.8 size=N/A time=00:00:24.66 bitrate=N/A    frame= 1238 fps=6.0 q=24.8 size=N/A time=00:00:24.76 bitrate=N/A    frame= 1243 fps=6.0 q=24.8 size=N/A time=00:00:24.86 bitrate=N/A    frame= 1248 fps=6.0 q=24.8 size=N/A time=00:00:24.96 bitrate=N/A    frame= 1253 fps=6.1 q=24.8 size=N/A time=00:00:25.06 bitrate=N/A    frame= 1258 fps=6.1 q=24.8 size=N/A time=00:00:25.16 bitrate=N/A    frame= 1262 fps=6.1 q=24.8 size=N/A time=00:00:25.24 bitrate=N/A    frame= 1267 fps=6.1 q=24.8 size=N/A time=00:00:25.34 bitrate=N/A    frame= 1272 fps=6.1 q=24.8 size=N/A time=00:00:25.44 bitrate=N/A    frame= 1277 fps=6.1 q=24.8 size=N/A time=00:00:25.54 bitrate=N/A    frame= 1282 fps=6.1 q=24.8 size=N/A time=00:00:25.64 bitrate=N/A    frame= 1282 fps=6.1 q=24.8 Lsize=N/A time=00:00:25.64 bitrate=N/A    
video:1165827kB audio:0kB subtitle:0kB other streams:0kB global headers:0kB muxing overhead: unknown
+ turkic load DJI_0011_30m_szarvasragas_homokmegy_20180603_napos_napraforgo_T3 /home/horvathandras/vatic/vatic/videos/DJI_0011_30m_szarvasragas_homokmegy_20180603_napos_napraforgo_T3 $'Pozit\303\255vROI' $'Negat\303\255vROI' $'T\303\272r\303\241s' '~Friss' '~1-2Hetes' '~Régebbi' '~Egyéb1' '~Egyéb2' '~Egyéb3' $'R\303\241g\303\241s' '~Friss' '~1-2Hetes' '~Régebbi' '~Egyéb1' '~Egyéb2' '~Egyéb3' $'T\303\266r\303\251s' '~Friss' '~1-2Hetes' '~Régebbi' '~Egyéb1' '~Egyéb2' '~Egyéb3' $'Tapos\303\241s' '~Friss' '~1-2Hetes' '~Régebbi' '~Egyéb1' '~Egyéb2' '~Egyéb3' $'Eg\303\251szs\303\251gesN\303\266v\303\251ny' $'Egy\303\251b1' $'Egy\303\251b2' $'Egy\303\251b3' $'Egy\303\251b4' $'Egy\303\251b5' Bizonytalan $'M\305\261vel\305\221\303\272t' $'Gktapos\303\241s' $'Vet\305\221hiba' $'Sz\303\251ld\303\266nt\303\251s' $'J\303\251gk\303\241r' $'Belv\303\255z' $'Asz\303\241ly' $'Er\303\263zi\303\263' $'Egyszik\305\261Gyom' $'K\303\251tszik\305\261Gyom' $'Egy\303\251bN\303\266vv\303\251delmiPR' --offline --title '$filenameNoDot Video' --length 1000 --description 'vatic annotation'
+ turkic publish --offline
+ mkdir /home/horvathandras/vatic/vatic/public/videothumbnails/DJI_0011_30m_szarvasragas_homokmegy_20180603_napos_napraforgo_T3
mkdir: cannot create directory '/home/horvathandras/vatic/vatic/public/videothumbnails/DJI_0011_30m_szarvasragas_homokmegy_20180603_napos_napraforgo_T3': File exists
+ cp /home/horvathandras/vatic/vatic/videos/DJI_0011_30m_szarvasragas_homokmegy_20180603_napos_napraforgo_T3/0/0/31.jpg /home/horvathandras/vatic/vatic/public/videothumbnails/DJI_0011_30m_szarvasragas_homokmegy_20180603_napos_napraforgo_T3/thumb.jpg
public/videothumbnails/DJI_0011_30m_szarvasragas_homokmegy_20180603_napos_napraforgo_T3/thumb.jpg
